<?xml version="1.0" encoding="UTF-8"?>
<svg xmlns="http://www.w3.org/2000/svg"
     width="256" height="256" viewBox="0 0 256 256"
     role="img" aria-label="The Gist logo — dark mode variant">
  <defs>
    <!-- luminous ring that reads on deep backgrounds -->
    <linearGradient id="ringGrad" x1="0.12" y1="0.08" x2="0.88" y2="0.92">
      <stop offset="0" stop-color="#D2FFF0"/>
      <stop offset="0.55" stop-color="#82F6C3"/>
      <stop offset="1" stop-color="#39D8A4"/>
    </linearGradient>

    <!-- inner bar keeps a cool mint glow -->
    <linearGradient id="barGrad" x1="0" y1="0" x2="1" y2="0">
      <stop offset="0" stop-color="#D4FFF5"/>
      <stop offset="1" stop-color="#4FE5B5"/>
    </linearGradient>

    <!-- darker, richer leaf for contrast -->
    <linearGradient id="leafGradDark" x1="0.1" y1="0.05" x2="0.9" y2="0.95">
      <stop offset="0" stop-color="#46F2AE"/>
      <stop offset="1" stop-color="#0DA86D"/>
    </linearGradient>

    <!-- subtle translucent sheen to add depth -->
    <radialGradient id="leafSheen" cx="0.4" cy="0.3" r="0.7">
      <stop offset="0" stop-color="#E8FFF6" stop-opacity="0.85"/>
      <stop offset="1" stop-color="#E8FFF6" stop-opacity="0"/>
    </radialGradient>

    <!-- soft halo so the ring feels illuminated -->
    <filter id="ringGlow" x="-20%" y="-20%" width="140%" height="140%">
      <feGaussianBlur in="SourceGraphic" stdDeviation="3" result="blur"/>
      <feMerge>
        <feMergeNode in="blur"/>
        <feMergeNode in="SourceGraphic"/>
      </feMerge>
    </filter>
  </defs>

  <g filter="url(#ringGlow)">
    <circle cx="128" cy="128" r="72"
            stroke="url(#ringGrad)" stroke-width="18" stroke-linecap="round"
            fill="none" stroke-dasharray="380 60"
            transform="rotate(-20 128 128)"/>
  </g>

  <path d="M156 128 H132"
        stroke="url(#barGrad)" stroke-width="14" stroke-linecap="round" />

  <path d="M188 110 C204 94 236 94 240 116 C236 142 206 150 188 132 C186 130 186 126 188 110 Z"
        fill="url(#leafGradDark)"/>

  <path d="M188 128 C202 116 226 118 232 130 C226 142 210 144 198 136 C192 132 190 130 188 128 Z"
        fill="#0C7B57" opacity="0.4"/>

  <path d="M208 116 C216 108 232 108 236 120 C232 136 220 138 208 126 C207 124 208 119 208 116 Z"
        fill="url(#leafSheen)"/>
</svg>
